<svg xmlns="http://www.w3.org/2000/svg" width="99" height="99"><g filter="url(#Filter_0)"><path fill-rule="evenodd" fill="#FFF" d="M19 13.999h59.999v60H19v-60z"/></g><path fill-rule="evenodd" fill="#2ECC71" d="M58.476 51.248l.144.415-4.7-4.974-.413-.415c.664-.664 1.822-.663 2.485 0l2.484 2.488a1.757 1.757 0 010 2.486zm-9.863.905l-7.774-7.784c-2.354-2.249-2.438-6.106-.305-8.595l4.958 4.963c.388.522-.388 1.863.091 1.748l4.912 4.92c.478.479 1.223.495 1.746.09l4.959 4.963a6.283 6.283 0 01-8.587-.305zm-2.315-12.268l-4.97-4.974.414-.415c.664-.664 1.823-.663 2.486 0l2.484 2.488a1.757 1.757 0 010 2.486l-.414.415z"/></svg>